<?xml version="1.0" standalone="no"?><!DOCTYPE svg PUBLIC "-//W3C//DTD SVG 1.1//EN" "http://www.w3.org/Graphics/SVG/1.1/DTD/svg11.dtd"><svg t="1584869202928" class="icon" viewBox="0 0 1024 1024" version="1.1" xmlns="http://www.w3.org/2000/svg" p-id="11876" xmlns:xlink="http://www.w3.org/1999/xlink" width="200" height="200"><defs><style type="text/css"></style></defs><path d="M192 96A96 96 0 0 0 96 192v640A96 96 0 0 0 192 928h640a96 96 0 0 0 96-96V192A96 96 0 0 0 832 96H192zM192 0h640a192 192 0 0 1 192 192v640a192 192 0 0 1-192 192H192a192 192 0 0 1-192-192V192a192 192 0 0 1 192-192z" fill="#727484" p-id="11877"></path><path d="M682.24 425.92L608 351.68H832v224l-81.664-81.664-208.832 179.008-128.448-128.448-158.336 131.968-61.44-73.792L418.944 414.72l127.552 127.552 135.744-116.352z" fill="#68A2FD" p-id="11878"></path></svg>