<?xml version="1.0" standalone="no"?><!DOCTYPE svg PUBLIC "-//W3C//DTD SVG 1.1//EN" "http://www.w3.org/Graphics/SVG/1.1/DTD/svg11.dtd"><svg t="1584868936553" class="icon" viewBox="0 0 1024 1024" version="1.1" xmlns="http://www.w3.org/2000/svg" p-id="8988" xmlns:xlink="http://www.w3.org/1999/xlink" width="200" height="200"><defs><style type="text/css"></style></defs><path d="M372.363636 558.545455H93.090909c-51.2 0-93.090909 41.890909-93.090909 93.090909v279.272727c0 51.2 41.890909 93.090909 93.090909 93.090909h279.272727c51.2 0 93.090909-41.890909 93.090909-93.090909V651.636364c0-51.2-41.890909-93.090909-93.090909-93.090909z m46.545455 360.727272c0 32.581818-25.6 58.181818-58.181818 58.181818h-256C72.145455 977.454545 46.545455 951.854545 46.545455 919.272727v-256C46.545455 630.690909 72.145455 605.090909 104.727273 605.090909h256c32.581818 0 58.181818 25.6 58.181818 58.181818v256zM581.818182 139.636364h418.909091c13.963636 0 23.272727-9.309091 23.272727-23.272728s-9.309091-23.272727-23.272727-23.272727H581.818182c-13.963636 0-23.272727 9.309091-23.272727 23.272727s9.309091 23.272727 23.272727 23.272728z m418.909091 186.181818H581.818182c-13.963636 0-23.272727 9.309091-23.272727 23.272727s9.309091 23.272727 23.272727 23.272727h418.909091c13.963636 0 23.272727-9.309091 23.272727-23.272727s-9.309091-23.272727-23.272727-23.272727z m0 325.818182H581.818182c-13.963636 0-23.272727 9.309091-23.272727 23.272727s9.309091 23.272727 23.272727 23.272727h418.909091c13.963636 0 23.272727-9.309091 23.272727-23.272727s-9.309091-23.272727-23.272727-23.272727zM372.363636 0H93.090909C41.890909 0 0 41.890909 0 93.090909v279.272727c0 51.2 41.890909 93.090909 93.090909 93.090909h279.272727c51.2 0 93.090909-41.890909 93.090909-93.090909V93.090909c0-51.2-41.890909-93.090909-93.090909-93.090909z m46.545455 360.727273c0 32.581818-25.6 58.181818-58.181818 58.181818h-256C72.145455 418.909091 46.545455 393.309091 46.545455 360.727273v-256C46.545455 72.145455 72.145455 46.545455 104.727273 46.545455h256C393.309091 46.545455 418.909091 72.145455 418.909091 104.727273v256zM1000.727273 884.363636H581.818182c-13.963636 0-23.272727 9.309091-23.272727 23.272728s9.309091 23.272727 23.272727 23.272727h418.909091c13.963636 0 23.272727-9.309091 23.272727-23.272727s-9.309091-23.272727-23.272727-23.272728z" fill="#666666" p-id="8989"></path></svg>