<?xml version="1.0" standalone="no"?><!DOCTYPE svg PUBLIC "-//W3C//DTD SVG 1.1//EN" "http://www.w3.org/Graphics/SVG/1.1/DTD/svg11.dtd"><svg t="1585243865059" class="icon" viewBox="0 0 1057 1024" version="1.1" xmlns="http://www.w3.org/2000/svg" p-id="2343" xmlns:xlink="http://www.w3.org/1999/xlink" width="206.4453125" height="200"><defs><style type="text/css"></style></defs><path d="M500.482865 552.476068c-73.789943 0-143.156749-28.735879-195.334291-80.903743-52.177543-52.177543-80.903743-121.544348-80.903743-195.334291s28.735879-143.156749 80.913421-195.334291S426.7026 0 500.482865 0 643.639613 28.735879 695.817156 80.903743s80.903743 121.544348 80.903743 195.334291-28.735879 143.156749-80.903743 195.334291c-52.177543 52.167864-121.544348 80.903743-195.334291 80.903743z m0-496.339962C379.122411 56.136106 280.380937 154.87758 280.380937 276.238034s98.741474 220.101928 220.101928 220.101928c121.370132 0 220.101928-98.741474 220.101928-220.101928S621.852997 56.136106 500.482865 56.136106z" p-id="2344"></path><path d="M972.006797 1024c-15.50518 0-28.068053-12.562873-28.068053-28.068053 0-244.521134-198.934745-443.455879-443.455879-443.455879-244.521134 0-443.455879 198.934745-443.455879 443.455879 0 15.50518-12.562873 28.068053-28.068053 28.068053s-28.068053-12.562873-28.068053-28.068053c0-67.431078 13.211342-132.858677 39.275917-194.472892 25.164461-59.494594 61.178677-112.920681 107.055425-158.787751S246.515379 560.78034 306.009973 535.615879c61.614216-26.054896 127.041815-39.275917 194.472892-39.275917 67.431078 0 132.858677 13.211342 194.472892 39.275917 59.494594 25.164461 112.920681 61.178677 158.787751 107.055425s81.890964 99.302836 107.055425 158.787751c26.054896 61.614216 39.275917 127.041815 39.275917 194.472892 0 15.50518-12.562873 28.068053-28.068053 28.068053z" p-id="2345"></path></svg>