<?xml version="1.0" standalone="no"?><!DOCTYPE svg PUBLIC "-//W3C//DTD SVG 1.1//EN" "http://www.w3.org/Graphics/SVG/1.1/DTD/svg11.dtd"><svg t="1585244205326" class="icon" viewBox="0 0 1024 1024" version="1.1" xmlns="http://www.w3.org/2000/svg" p-id="4640" xmlns:xlink="http://www.w3.org/1999/xlink" width="200" height="200"><defs><style type="text/css"></style></defs><path d="M790.1 702.5c-78.6 0-142.6-62.2-142.6-138.7 0-76.5 64-138.7 142.6-138.7s142.6 62.2 142.6 138.7c0 76.4-64 138.7-142.6 138.7z m0-237.4c-56.6 0-102.6 44.3-102.6 98.7 0 54.4 46 98.7 102.6 98.7 56.6 0 102.6-44.3 102.6-98.7 0-54.5-46-98.7-102.6-98.7z" fill="#1C1C1C" p-id="4641"></path><path d="M997.7 963.8H582.5c-11.2 0-20.4-9.1-20.4-20.4v-48.2c0-60.9 23.7-118.1 66.8-161.2 43.1-43.1 100.3-66.8 161.2-66.8 60.9 0 118.1 23.7 161.2 66.8 43.1 43.1 66.8 100.3 66.8 161.2v48.2c-0.1 11.3-9.2 20.4-20.4 20.4z m-395.6-40H978v-28.6c0-103.6-84.3-188-188-188-103.6 0-188 84.3-188 188v28.6z" fill="#1C1C1C" p-id="4642"></path><path d="M531.6 912H114.9c-53.3 0-96.6-43.3-96.6-96.6V197.7C18.3 130.6 72.9 76 140 76h412.4c5.4 0 10.6 2.2 14.4 6.1l172.6 179.2c3.6 3.7 5.6 8.7 5.6 13.9v118.1c0 11-9 20-20 20s-20-9-20-20v-110L543.9 116H140c-45.1 0-81.7 36.7-81.7 81.7v617.8c0 31.2 25.4 56.6 56.6 56.6h416.7c11 0 20 9 20 20s-8.9 19.9-20 19.9z" fill="#1C1C1C" p-id="4643"></path><path d="M571.6 443.5H183.8c-11 0-20-9-20-20s9-20 20-20h387.8c11 0 20 9 20 20s-9 20-20 20zM571.6 578.9H183.8c-11 0-20-9-20-20s9-20 20-20h387.8c11 0 20 9 20 20s-9 20-20 20zM571.6 714.3H183.8c-11 0-20-9-20-20s9-20 20-20h387.8c11 0 20 9 20 20s-9 20-20 20zM725 299.3H552.4c-11 0-20-9-20-20V96c0-11 9-20 20-20s20 9 20 20v163.4H725c11 0 20 9 20 20s-8.9 19.9-20 19.9z" fill="#1C1C1C" p-id="4644"></path></svg>