<?xml version="1.0" standalone="no"?><!DOCTYPE svg PUBLIC "-//W3C//DTD SVG 1.1//EN" "http://www.w3.org/Graphics/SVG/1.1/DTD/svg11.dtd"><svg t="1588161446955" class="icon" viewBox="0 0 1024 1024" version="1.1" xmlns="http://www.w3.org/2000/svg" p-id="3715" xmlns:xlink="http://www.w3.org/1999/xlink" width="200" height="200"><defs><style type="text/css"></style></defs><path d="M312.661333 701.610667l-56.533333-56.576a29.312 29.312 0 1 0-41.514667 41.514666l79.189334 79.189334a29.354667 29.354667 0 0 0 38.869333 2.304 31.872 31.872 0 0 0 11.434667-7.338667l148.352-148.352a32 32 0 1 0-45.269334-45.226667l-134.528 134.485334z m0-278.101334L256.128 366.933333a29.312 29.312 0 1 0-41.514667 41.472l79.189334 79.189334a29.354667 29.354667 0 0 0 38.869333 2.346666 31.872 31.872 0 0 0 11.434667-7.338666l148.352-148.352a32 32 0 0 0-45.269334-45.226667L312.661333 423.466667zM170.666667 42.666667h682.666666a85.333333 85.333333 0 0 1 85.333334 85.333333v768a85.333333 85.333333 0 0 1-85.333334 85.333333H170.666667a85.333333 85.333333 0 0 1-85.333334-85.333333V128a85.333333 85.333333 0 0 1 85.333334-85.333333z m413.354666 391.125333a29.312 29.312 0 1 0 0 58.666667h239.957334a29.354667 29.354667 0 0 0 0-58.666667h-240z m0 278.101333a29.312 29.312 0 1 0 0 58.666667h239.957334a29.312 29.312 0 1 0 0-58.666667h-240z" p-id="3716"></path></svg>