<?xml version="1.0" standalone="no"?><!DOCTYPE svg PUBLIC "-//W3C//DTD SVG 1.1//EN" "http://www.w3.org/Graphics/SVG/1.1/DTD/svg11.dtd"><svg t="1585141703680" class="icon" viewBox="0 0 1024 1024" version="1.1" xmlns="http://www.w3.org/2000/svg" p-id="5002" xmlns:xlink="http://www.w3.org/1999/xlink" width="200" height="200"><defs><style type="text/css"></style></defs><path d="M1008.57519 475.576709l-102.4-102.4a51.848101 51.848101 0 0 0-36.164051-14.906329H716.411139V204.67038A51.848101 51.848101 0 0 0 701.50481 168.506329L547.90481 15.035949a51.07038 51.07038 0 0 0-72.328101 0L322.106329 168.506329a50.811139 50.811139 0 0 0-15.035949 36.164051v153.6H153.47038a51.848101 51.848101 0 0 0-36.164051 14.906329l-102.27038 102.4A51.07038 51.07038 0 0 0 0 511.740759V972.151899a51.848101 51.848101 0 0 0 51.848101 51.848101h920.303798a51.848101 51.848101 0 0 0 51.848101-51.848101V511.740759a50.940759 50.940759 0 0 0-15.42481-36.16405zM511.740759 51.848101l153.6 152.822279v153.6H358.27038V204.67038zM153.47038 409.340759h153.6v102.4H51.848101zM51.848101 972.151899V562.940759h255.222279V972.151899z m435.00557 0v-102.14076h51.848101V972.151899z m102.27038 0v-102.14076a51.07038 51.07038 0 0 0-51.07038-51.848101h-51.848101a51.848101 51.848101 0 0 0-51.2 51.848101V972.151899h-76.73519V409.340759h307.070379V972.151899zM972.151899 972.151899H716.411139V562.940759H972.151899zM716.411139 511.740759v-102.4h153.6l102.14076 102.4z" fill="#707070" p-id="5003"></path><path d="M102.4 818.811139h153.47038v51.2H102.4z" fill="#707070" p-id="5004"></path><path d="M102.4 716.411139h153.47038v51.2H102.4z" fill="#707070" p-id="5005"></path><path d="M102.4 614.140759h153.47038v51.2H102.4z" fill="#707070" p-id="5006"></path><path d="M767.611139 818.811139h153.47038v51.2H767.611139z" fill="#707070" p-id="5007"></path><path d="M767.611139 716.411139h153.47038v51.2H767.611139z" fill="#707070" p-id="5008"></path><path d="M767.611139 614.140759h153.47038v51.2H767.611139z" fill="#707070" p-id="5009"></path><path d="M511.740759 307.07038a76.86481 76.86481 0 1 0-76.735189-76.73519 76.86481 76.86481 0 0 0 76.735189 76.73519z m0-102.4a25.924051 25.924051 0 1 1-25.92405 25.92405 25.924051 25.924051 0 0 1 25.92405-25.92405z" fill="#707070" p-id="5010"></path><path d="M511.740759 460.540759a76.86481 76.86481 0 0 0-76.735189 76.864811v217.373164H588.475949V537.40557a76.86481 76.86481 0 0 0-76.73519-76.864811z m25.924051 243.167595h-51.848101V537.40557a25.924051 25.924051 0 1 1 51.848101 0z" fill="#707070" p-id="5011"></path></svg>