<?xml version="1.0" standalone="no"?><!DOCTYPE svg PUBLIC "-//W3C//DTD SVG 1.1//EN" "http://www.w3.org/Graphics/SVG/1.1/DTD/svg11.dtd"><svg t="1584869581594" class="icon" viewBox="0 0 1024 1024" version="1.1" xmlns="http://www.w3.org/2000/svg" p-id="13041" xmlns:xlink="http://www.w3.org/1999/xlink" width="200" height="200"><defs><style type="text/css"></style></defs><path d="M720.1 129.1h-554c-20.4 0-36.9 16.5-36.9 36.9v554c0 20.4 16.5 36.9 36.9 36.9H203V221.5c0-10.2 8.3-18.4 18.5-18.5H757v-36.9c0-20.4-16.5-37-36.9-37z" p-id="13042"></path><path d="M857.9 267.1h-554c-20.4 0-36.9 16.5-36.9 36.9v553.9c0 20.4 16.5 36.9 36.9 36.9h553.9c20.4 0 36.9-16.5 36.9-36.9V304c0.1-20.4-16.4-36.9-36.8-36.9zM451.6 617.9l59.3-59.3c3.7-3.7 8.8-5.7 14.1-5.4 5.2 0.3 10.1 2.8 13.4 6.9l44 55c3.8 4.8 9.8 7.3 15.9 6.9 6.1-0.5 11.6-4 14.6-9.3L673.3 507l55.4-18.5c36.9-98.5 55.4-135.4 55.4-110.8V741H399l0.2-55.5 52.4-67.6zM784 802.5H359.3c-4.9 0-9.6-1.9-13.1-5.4-3.5-3.5-5.4-8.2-5.4-13.1V377.8c0-10.2 8.3-18.5 18.5-18.5s18.5 8.3 18.5 18.5v387.3l406.2 0.4c10.2 0 18.5 8.3 18.5 18.5 0 10.3-8.3 18.5-18.5 18.5z" p-id="13043"></path></svg>